<svg width="500" height="500" viewBox="0 0 500 500" fill="none" xmlns="http://www.w3.org/2000/svg">
<g clip-path="url(#clip0_916_30)">
<circle cx="250" cy="250" r="250" fill="#216080"/>
<g clip-path="url(#clip1_916_30)">
<path d="M116 366.9V333.5H149.5V216.6C149.5 193.498 156.479 172.971 170.437 155.019C184.396 137.066 202.542 125.307 224.875 119.74V108.05C224.875 101.092 227.318 95.1771 232.203 90.3062C237.089 85.4354 243.021 83 250 83C256.979 83 262.911 85.4354 267.797 90.3062C272.682 95.1771 275.125 101.092 275.125 108.05V119.74C297.458 125.307 315.604 137.066 329.562 155.019C343.521 172.971 350.5 193.498 350.5 216.6V333.5H384V366.9H116ZM250 417C240.787 417 232.901 413.73 226.341 407.189C219.78 400.648 216.5 392.785 216.5 383.6H283.5C283.5 392.785 280.22 400.648 273.659 407.189C267.099 413.73 259.212 417 250 417ZM183 333.5H317V216.6C317 198.23 310.44 182.504 297.319 169.422C284.198 156.341 268.425 149.8 250 149.8C231.575 149.8 215.802 156.341 202.681 169.422C189.56 182.504 183 198.23 183 216.6V333.5Z" fill="#DCE9E4"/>
</g>
</g>
<defs>
<clipPath id="clip0_916_30">
<rect width="500" height="500" fill="white"/>
</clipPath>
<clipPath id="clip1_916_30">
<rect width="268" height="334" fill="white" transform="translate(116 83)"/>
</clipPath>
</defs>
</svg>
